<svg width="62" height="62" viewBox="0 0 62 62" fill="none" xmlns="http://www.w3.org/2000/svg">
<mask id="path-1-inside-1_6346_200735" fill="white">
<path fill-rule="evenodd" clip-rule="evenodd" d="M36.9092 57.3975C50.0917 54.6685 60 42.9914 60 29C60 12.9837 47.0163 0 31 0C14.9837 0 2 12.9837 2 29C2 43.0545 11.9979 54.7739 25.2696 57.4339L28.9498 61.1142C30.1214 62.2858 32.0209 62.2858 33.1925 61.1142L36.9092 57.3975Z"/>
</mask>
<path fill-rule="evenodd" clip-rule="evenodd" d="M36.9092 57.3975C50.0917 54.6685 60 42.9914 60 29C60 12.9837 47.0163 0 31 0C14.9837 0 2 12.9837 2 29C2 43.0545 11.9979 54.7739 25.2696 57.4339L28.9498 61.1142C30.1214 62.2858 32.0209 62.2858 33.1925 61.1142L36.9092 57.3975Z" fill="white"/>
<path d="M36.9092 57.3975L36.5037 55.439L35.918 55.5603L35.495 55.9833L36.9092 57.3975ZM25.2696 57.4339L26.6838 56.0197L26.2559 55.5918L25.6626 55.4729L25.2696 57.4339ZM28.9498 61.1142L27.5356 62.5284H27.5356L28.9498 61.1142ZM33.1925 61.1142L31.7783 59.7L31.7783 59.7L33.1925 61.1142ZM58 29C58 42.0241 48.7764 52.8984 36.5037 55.439L37.3146 59.356C51.4071 56.4386 62 43.9586 62 29H58ZM31 2C45.9117 2 58 14.0883 58 29H62C62 11.8792 48.1208 -2 31 -2V2ZM4 29C4 14.0883 16.0883 2 31 2V-2C13.8792 -2 0 11.8792 0 29H4ZM25.6626 55.4729C13.3072 52.9965 4 42.0829 4 29H0C0 44.0261 10.6887 56.5513 24.8765 59.3949L25.6626 55.4729ZM30.3641 59.7L26.6838 56.0197L23.8554 58.8481L27.5356 62.5284L30.3641 59.7ZM31.7783 59.7C31.3878 60.0905 30.7546 60.0905 30.3641 59.7L27.5356 62.5284C29.4883 64.481 32.6541 64.481 34.6067 62.5284L31.7783 59.7ZM35.495 55.9833L31.7783 59.7L34.6067 62.5284L38.3234 58.8117L35.495 55.9833Z" fill="#00D4EA" mask="url(#path-1-inside-1_6346_200735)"/>
<path fill-rule="evenodd" clip-rule="evenodd" d="M34.6479 43.1139H49.0019C50.1065 43.1139 51.0019 42.2185 51.0019 41.1139V40.1432C51.0133 37.9341 49.6487 34.6203 44.3858 32.9634C39.9163 31.5563 39.1407 26.042 38.9246 22.8047C38.8117 21.1147 37.8511 20.7144 37 20.5L32.2662 20C31.1698 19.7239 29.0591 18.1837 29.3881 15.5327C29.5062 14.5807 29.3804 13.7784 29.1326 13.1217C28.5287 11.5211 26.5109 11.7806 25.2886 12.9776L16.1992 21.858C14.6253 23.3993 14.5939 25.9231 16.1289 27.5031L28.9098 40.6884C30.4162 42.239 32.486 43.1139 34.6479 43.1139ZM26.4999 26.8009C27.8806 26.8009 28.9999 25.6816 28.9999 24.3009C28.9999 22.9202 27.8806 21.8009 26.4999 21.8009C25.1192 21.8009 23.9999 22.9202 23.9999 24.3009C23.9999 25.6816 25.1192 26.8009 26.4999 26.8009Z" fill="#00D4EA"/>
<path d="M15.6665 42.9047H24" stroke="#060606" stroke-width="3.4" stroke-linecap="round"/>
<path d="M15.6665 37.3818H18.5" stroke="#060606" stroke-width="3.4" stroke-linecap="round"/>
<path d="M15 26L30.1569 41.1569C31.6571 42.6571 33.692 43.5 35.8137 43.5H49.4" stroke="#060606" stroke-width="4" stroke-linecap="round"/>
<path d="M35.6709 30.6054L39.6595 28.6261" stroke="#060606" stroke-width="3.4" stroke-linecap="round"/>
<path d="M39.7847 35.8652L42.6137 32.4267" stroke="#060606" stroke-width="3.4" stroke-linecap="round"/>
</svg>
