<svg width="62" height="62" viewBox="0 0 62 62" fill="none" xmlns="http://www.w3.org/2000/svg">
<mask id="path-1-inside-1_11177_252507" fill="white">
<path fill-rule="evenodd" clip-rule="evenodd" d="M36.9092 57.3975C50.0917 54.6685 60 42.9914 60 29C60 12.9837 47.0163 0 31 0C14.9837 0 2 12.9837 2 29C2 43.0545 11.9979 54.7739 25.2696 57.4339L28.9498 61.1142C30.1214 62.2858 32.0209 62.2858 33.1925 61.1142L36.9092 57.3975Z"/>
</mask>
<path fill-rule="evenodd" clip-rule="evenodd" d="M36.9092 57.3975C50.0917 54.6685 60 42.9914 60 29C60 12.9837 47.0163 0 31 0C14.9837 0 2 12.9837 2 29C2 43.0545 11.9979 54.7739 25.2696 57.4339L28.9498 61.1142C30.1214 62.2858 32.0209 62.2858 33.1925 61.1142L36.9092 57.3975Z" fill="white"/>
<path d="M36.9092 57.3975L36.5037 55.439L35.918 55.5603L35.495 55.9833L36.9092 57.3975ZM25.2696 57.4339L26.6838 56.0197L26.2559 55.5918L25.6626 55.4729L25.2696 57.4339ZM28.9498 61.1142L27.5356 62.5284H27.5356L28.9498 61.1142ZM33.1925 61.1142L31.7783 59.7L31.7783 59.7L33.1925 61.1142ZM58 29C58 42.0241 48.7764 52.8984 36.5037 55.439L37.3146 59.356C51.4071 56.4386 62 43.9586 62 29H58ZM31 2C45.9117 2 58 14.0883 58 29H62C62 11.8792 48.1208 -2 31 -2V2ZM4 29C4 14.0883 16.0883 2 31 2V-2C13.8792 -2 0 11.8792 0 29H4ZM25.6626 55.4729C13.3072 52.9965 4 42.0829 4 29H0C0 44.0261 10.6887 56.5513 24.8765 59.3949L25.6626 55.4729ZM30.3641 59.7L26.6838 56.0197L23.8554 58.8481L27.5356 62.5284L30.3641 59.7ZM31.7783 59.7C31.3878 60.0905 30.7546 60.0905 30.3641 59.7L27.5356 62.5284C29.4883 64.481 32.6541 64.481 34.6067 62.5284L31.7783 59.7ZM35.495 55.9833L31.7783 59.7L34.6067 62.5284L38.3234 58.8117L35.495 55.9833Z" fill="#00D4EA" mask="url(#path-1-inside-1_11177_252507)"/>
<path fill-rule="evenodd" clip-rule="evenodd" d="M22.6342 33.5904C22.3082 33.6448 22.0094 33.6991 21.6835 33.7806C19.8907 34.4325 18.5054 34.9757 17.4461 36.3338C17.256 36.5783 16.8214 37.0129 16.767 37.3389C16.6041 38.3982 15.925 39.8921 16.251 41.4676C16.7942 43.9937 18.5326 45.7321 20.8958 46.4383C21.4118 46.6013 22.1977 46.7371 22.9601 46.7371C23.6935 46.6284 24.4812 46.6284 25.1331 46.4111C26.9258 45.7864 28.1482 44.1295 28.8544 42.3639C30.5113 38.1537 26.7357 33.5361 22.6342 33.5904ZM41.4306 33.6991C40.8331 33.8349 40.2355 33.9707 39.6379 34.1065C37.8723 34.7584 36.5685 36.1709 35.8895 37.9093C35.2919 39.4575 35.4005 42.2281 36.1883 43.5319C37.0303 44.9715 39.8552 47.0087 42.5443 46.6013C45.1247 46.1938 46.9718 44.9172 47.841 42.8529C49.9325 37.9636 46.2384 33.6176 41.4306 33.6991Z" fill="#060606"/>
<path fill-rule="evenodd" clip-rule="evenodd" d="M22.1998 11.2629C24.7803 11.453 25.5952 13.2186 26.0026 15.6632C26.0841 16.125 25.9211 16.6139 25.8668 16.967C25.8668 17.5646 25.8668 18.1622 25.8668 18.7597C25.894 20.8512 25.9211 22.9156 25.9483 25.0071C25.9483 27.3703 25.9754 29.5704 27.1434 30.7384C27.5509 31.1459 28.2299 31.6619 28.8003 31.8521C30.1856 31.8249 31.5709 31.7978 32.9562 31.7706C33.4723 31.6891 34.5316 31.9607 34.8033 31.6348C35.3737 30.6569 34.4502 29.1087 34.2872 28.3481C34.2872 25.6862 34.2872 22.9971 34.2872 20.3352C34.2872 19.0857 34.1785 17.809 34.7218 17.13C35.754 15.7719 39.9895 16.0707 42.2984 16.0707C43.8738 16.0707 46.0214 16.0707 47.0264 16.7497C47.4067 16.9942 47.787 17.4831 47.9228 17.972C48.1129 18.5968 47.9499 19.466 47.9499 20.1722C47.9499 21.9378 47.9771 23.6762 47.9771 25.4417C47.9771 26.5554 48.0586 27.995 47.5697 28.7012C46.9449 29.6519 44.8806 29.8964 45.288 31.8521C45.5053 32.8843 46.9721 33.6991 47.5968 34.4597C48.3574 35.4104 48.6833 36.2524 48.9278 37.8278C49.0364 38.4526 49.0636 40.5169 48.7105 40.87C43.441 40.87 38.1986 40.87 32.9291 40.87C31.924 40.87 28.3657 41.0602 27.8497 40.7342C27.0076 40.2181 27.2521 39.1045 26.8718 38.1266C26.3286 36.7413 25.4322 35.682 24.0469 35.1387C21.4936 34.1337 19.1848 35.8993 18.4786 37.6377C17.9625 38.9415 18.4243 41.3861 16.2513 40.7886C15.0289 40.4354 14.7845 39.186 15.1647 37.692C15.5993 35.9536 16.4686 34.4597 17.6909 33.509C18.0168 33.2917 18.3156 33.1016 18.6416 32.8843C18.6959 29.6519 18.7502 26.4196 18.7774 23.2144C18.7774 22.2094 18.7774 21.2044 18.7774 20.2265C18.7774 19.7376 18.7502 19.2758 18.7502 18.7869C15.0833 18.8412 14.9474 13.3001 19.1033 13.3816C19.4836 12.5938 20.0812 11.9691 20.9504 11.6431C21.3035 11.4258 21.7906 11.3173 22.1998 11.2629Z" fill="#00D4EA"/>
<path fill-rule="evenodd" clip-rule="evenodd" d="M23.3683 14.3322C22.5262 14.6853 21.983 14.7668 21.5755 15.5002C20.8421 16.7768 21.7113 18.2708 22.662 18.6782C23.3411 18.9498 26.2475 19.0313 27.0895 18.7869C27.5513 18.6511 28.0131 18.3251 28.2847 17.9992C28.4205 17.7275 28.5563 17.4559 28.6921 17.1571C28.8008 16.7225 28.6921 16.1249 28.5835 15.8262C27.9316 14.0606 25.7857 14.2779 23.3683 14.3322ZM44.3106 29.7334C43.3871 27.2616 39.6386 28.7555 36.9224 28.3209C35.5914 28.3481 34.2876 28.3752 32.9566 28.4024C31.0553 28.8642 31.0009 31.8249 32.522 32.7484C33.2283 33.183 34.5864 32.9386 35.7001 32.9386H40.8609C41.6487 32.9386 42.6265 33.02 43.1969 32.8027C43.6315 32.6126 44.0933 32.1508 44.2834 31.7162C44.5279 31.1187 44.5279 30.3038 44.3106 29.7334Z" fill="#060606"/>
</svg>
